<svg width="40" height="35" viewBox="0 0 40 35" fill="none" xmlns="http://www.w3.org/2000/svg">
<g clip-path="url(#clip0_1_67)">
<path fill-rule="evenodd" clip-rule="evenodd" d="M39.3939 18.9189C39.3939 20.6604 38.0373 22.0721 36.3636 22.0721H3.0303C1.35667 22.0721 0 20.6604 0 18.9189C0 17.1774 1.35667 15.7658 3.0303 15.7658H36.3636C38.0373 15.7658 39.3939 17.1774 39.3939 18.9189ZM7.57576 25.2252H3.0303C3.0303 30.4497 7.1003 34.6847 12.1212 34.6847H27.2727C32.2936 34.6847 36.3636 30.4497 36.3636 25.2252H7.57576ZM6.06061 12.6126H3.0303V6.30631C3.0303 2.82333 5.74364 0 9.09091 0H30.303C33.6503 0 36.3636 2.82333 36.3636 6.30631V12.6126H6.06061ZM30.303 7.88288C30.303 8.75347 30.9815 9.45946 31.8182 9.45946C32.6548 9.45946 33.3333 8.75347 33.3333 7.88288C33.3333 7.0123 32.6548 6.30631 31.8182 6.30631C30.9815 6.30631 30.303 7.0123 30.303 7.88288ZM24.2424 4.72973C24.2424 5.60032 24.9209 6.30631 25.7576 6.30631C26.5942 6.30631 27.2727 5.60032 27.2727 4.72973C27.2727 3.85914 26.5942 3.15315 25.7576 3.15315C24.9209 3.15315 24.2424 3.85914 24.2424 4.72973ZM18.1818 7.88288C18.1818 8.75347 18.8603 9.45946 19.697 9.45946C20.5336 9.45946 21.2121 8.75347 21.2121 7.88288C21.2121 7.0123 20.5336 6.30631 19.697 6.30631C18.8603 6.30631 18.1818 7.0123 18.1818 7.88288ZM12.1212 4.72973C12.1212 5.60032 12.7997 6.30631 13.6364 6.30631C14.473 6.30631 15.1515 5.60032 15.1515 4.72973C15.1515 3.85914 14.473 3.15315 13.6364 3.15315C12.7997 3.15315 12.1212 3.85914 12.1212 4.72973ZM6.06061 7.88288C6.06061 8.75347 6.73909 9.45946 7.57576 9.45946C8.41242 9.45946 9.09091 8.75347 9.09091 7.88288C9.09091 7.0123 8.41242 6.30631 7.57576 6.30631C6.73909 6.30631 6.06061 7.0123 6.06061 7.88288Z" fill="#FD0B7D"/>
</g>
<defs>
<clipPath id="clip0_1_67">
<rect width="40" height="35" fill="white"/>
</clipPath>
</defs>
</svg>
