<svg width="40" height="35" viewBox="0 0 40 35" fill="none" xmlns="http://www.w3.org/2000/svg">
<g clip-path="url(#clip0_1_76)">
<path fill-rule="evenodd" clip-rule="evenodd" d="M11.2009 19.6765L17.1204 14.2218L2.44726 0.700516C-0.815753 3.70738 -0.815753 8.59354 2.44726 11.6004L11.2009 19.6765ZM25.3929 16.1782C28.5827 17.5563 33.0903 16.5829 36.416 13.5182C40.4216 9.82713 41.1851 4.55547 38.1208 1.73172C35.046 -1.09204 29.3148 -0.38851 25.3197 3.30261C21.994 6.3673 20.9481 10.521 22.4332 13.4604C17.7792 17.7394 2.00801 32.2726 2.00801 32.2726L4.96773 35L19.3584 21.7389L33.7492 35L36.7089 32.2726L22.3182 19.0116L25.3929 16.1782Z" fill="#FD0B7D"/>
</g>
<defs>
<clipPath id="clip0_1_76">
<rect width="40" height="35" fill="white"/>
</clipPath>
</defs>
</svg>
