<svg width="58" height="54" viewBox="0 0 58 54" fill="none" xmlns="http://www.w3.org/2000/svg">
<g clip-path="url(#clip0_1_137)">
<path fill-rule="evenodd" clip-rule="evenodd" d="M58.0755 10.0045C49.4762 14.2233 45.1766 19.1803 45.1766 24.8756C48.8419 25.2975 51.8727 26.7916 54.2693 29.358C56.6658 31.9245 57.8641 34.8951 57.8641 38.2701C57.8641 41.8561 56.7011 44.8795 54.375 47.3405C52.049 49.8014 49.1238 51.0319 45.5995 51.0319C41.6522 51.0319 38.2337 49.4323 35.3438 46.233C32.4538 43.0338 31.0089 39.1491 31.0089 34.5787C31.0089 20.8677 38.6918 10.1452 54.0578 2.41077L58.0755 10.0045ZM27.112 10.0045C18.4421 14.2233 14.1073 19.1803 14.1073 24.8756C17.8431 25.2975 20.9092 26.7916 23.3057 29.358C25.7023 31.9245 26.9005 34.8951 26.9005 38.2701C26.9005 41.8561 25.7199 44.8795 23.3586 47.3405C20.9973 49.8014 18.0545 51.0319 14.5302 51.0319C10.583 51.0319 7.18205 49.4323 4.32734 46.233C1.47264 43.0338 0.0453129 39.1491 0.0453129 34.5787C0.0453129 20.8677 7.69298 10.1452 22.9885 2.41077L27.112 10.0045Z" fill="#D6D6D6"/>
</g>
<defs>
<clipPath id="clip0_1_137">
<rect width="58" height="54" fill="white"/>
</clipPath>
</defs>
</svg>
